<?xml version="1.0" encoding="utf-8"?>
<!-- Generator: Adobe Illustrator 26.0.0, SVG Export Plug-In . SVG Version: 6.00 Build 0)  -->
<svg version="1.1" xmlns="http://www.w3.org/2000/svg" xmlns:xlink="http://www.w3.org/1999/xlink" x="0px" y="0px"
	 viewBox="0 0 100 100" style="enable-background:new 0 0 100 100;" xml:space="preserve">
<style type="text/css">
	.st0{display:none;}
	.st1{display:inline;filter:url(#Adobe_OpacityMaskFilter);}
	.st2{display:inline;mask:url(#SVGID_1_);}
	.st3{fill:#BABECC;}
	.st4{display:inline;}
	.st5{fill:none;stroke:#BABECC;stroke-width:10;stroke-linecap:round;stroke-miterlimit:10;}
	.st6{display:inline;fill:none;stroke:#BABECC;stroke-width:10;stroke-linecap:round;stroke-miterlimit:10;}
</style>
<g id="Layer_3" class="st0">
	<defs>
		<filter id="Adobe_OpacityMaskFilter" filterUnits="userSpaceOnUse" x="0" y="55" width="100" height="45">
			<feFlood  style="flood-color:white;flood-opacity:1" result="back"/>
			<feBlend  in="SourceGraphic" in2="back" mode="normal"/>
		</filter>
	</defs>
	<mask maskUnits="userSpaceOnUse" x="0" y="55" width="100" height="45" id="SVGID_1_" class="st4">
		<g style="filter:url(#Adobe_OpacityMaskFilter);">
			<g>
				<path d="M50,15c-15.1,0-27.5,12.4-27.5,27.5S34.9,70,50,70s27.5-12.4,27.5-27.5S65.1,15,50,15L50,15z"/>
			</g>
		</g>
	</mask>
	<g class="st2">
		<path class="st3" d="M70,65c11,0,20,9,20,20v5H10v-5c0-11,9-20,20-20H70 M70,55H30C13.4,55,0,68.4,0,85v15h100V85
			C100,68.4,86.6,55,70,55L70,55z"/>
	</g>
	<g class="st4">
		<path class="st3" d="M50,11c9.1,0,16.5,7.4,16.5,16.5S59.1,44,50,44s-16.5-7.4-16.5-16.5S40.9,11,50,11 M50,0
			C34.9,0,22.5,12.4,22.5,27.5S34.9,55,50,55s27.5-12.4,27.5-27.5S65.1,0,50,0L50,0z"/>
	</g>
</g>
<g id="Layer_2" class="st0">
	<g class="st4">
		<path class="st3" d="M22.5,37.5C29.4,37.5,35,43.1,35,50s-5.6,12.5-12.5,12.5S10,56.9,10,50S15.6,37.5,22.5,37.5 M22.5,27.5
			C10.1,27.5,0,37.6,0,50s10.1,22.5,22.5,22.5S45,62.4,45,50S34.9,27.5,22.5,27.5L22.5,27.5z"/>
	</g>
	<g class="st4">
		<line class="st5" x1="40" y1="50" x2="95" y2="50"/>
	</g>
	<line class="st6" x1="95" y1="50" x2="95" y2="65"/>
	<line class="st6" x1="75" y1="50" x2="75" y2="65"/>
	<line class="st6" x1="95" y1="95" x2="50" y2="95"/>
	<path class="st6" d="M5,5"/>
	<path class="st6" d="M95,5"/>
	<path class="st6" d="M95,7"/>
	<path class="st6" d="M95,22"/>
	<path class="st6" d="M95,22.7V15c0-5.5-4.5-10-10-10H5"/>
</g>
<g id="Layer_4">
	<g>
		<g>
			<path class="st3" d="M22.7,95.2c-7.3-3-12.8-7.4-16.5-13.3C2.5,76,0.7,68.6,0.7,59.7c0-2.4,0-4.9,0-7.3c0-2.4,0-4.9,0.1-7.3
				c0.1-9.7,2-17.7,5.6-24.2c3.7-6.4,9.2-11.2,16.5-14.4c7.3-3.2,16.4-4.8,27.4-4.8c10.8,0,19.8,1.6,27.1,4.8
				c7.3,3.2,12.8,8,16.5,14.5c3.7,6.4,5.5,14.5,5.5,24.1v16.8c0,6.2-1.6,10.8-4.7,13.7c-3.1,2.9-7.6,4.4-13.5,4.4
				c-6.3,0-11-1.4-14.1-4.2c-3.1-2.8-4.7-7-4.7-12.7l13.5-0.3c0,2.7,0.5,4.6,1.4,5.9c0.9,1.3,2.4,1.9,4.3,1.9c2,0,3.5-0.6,4.4-1.8
				c0.9-1.2,1.4-3.2,1.4-5.9V45c0-7.5-1.4-13.8-4.2-18.9c-2.8-5-7-8.8-12.5-11.4C65.2,12.3,58.4,11,50.3,11C42,11,35,12.3,29.5,14.8
				C24,17.3,19.8,21.1,17,26.1c-2.8,5-4.2,11.3-4.3,18.9c0,2.4-0.1,4.8-0.1,7.3c0,2.4,0,4.9,0,7.4c0,6.8,1.4,12.4,4.1,16.9
				c2.8,4.5,6.9,7.9,12.5,10.1c5.6,2.2,12.6,3.4,21,3.4h19.3v9.6H50.3C39.2,99.7,30,98.2,22.7,95.2z M29.9,73.9
				c-3.8-4-5.7-10-5.7-18.1v-9.3c0-8.1,2.1-14.1,6.4-18.1c4.3-4,10.8-6,19.4-6c8.6,0,15.1,2,19.4,6c4.3,4,6.4,10.1,6.4,18.2V64
				l-9.5,3.1c-0.9,4.3-2.9,7.5-6.1,9.6s-7.7,3.2-13.3,3.2C39.4,79.9,33.7,77.9,29.9,73.9z M60,66.6c2.2-2.3,3.3-5.7,3.3-10.4V46
				c0-4.6-1.1-8-3.3-10.2c-2.2-2.3-5.6-3.4-10-3.4c-8.8,0-13.2,4.6-13.2,13.7v10.2c0,4.6,1.1,8.1,3.3,10.4c2.2,2.3,5.5,3.4,9.9,3.4
				C54.5,70,57.8,68.9,60,66.6z"/>
		</g>
	</g>
</g>
</svg>
