<?xml version="1.0" encoding="utf-8"?>
<!-- Generator: Adobe Illustrator 26.0.0, SVG Export Plug-In . SVG Version: 6.00 Build 0)  -->
<svg version="1.1" id="Layer_3" xmlns="http://www.w3.org/2000/svg" xmlns:xlink="http://www.w3.org/1999/xlink" x="0px" y="0px"
	 viewBox="0 0 100 100" style="enable-background:new 0 0 100 100;" xml:space="preserve">
<style type="text/css">
	.st0{filter:url(#Adobe_OpacityMaskFilter);}
	.st1{stroke:#000000;stroke-miterlimit:10;}
	.st2{mask:url(#SVGID_1_);}
	.st3{fill:#868EAC;}
	.st4{fill:none;stroke:#868EAC;stroke-width:10;stroke-miterlimit:10;}
	.st5{fill:none;stroke:#868EAC;stroke-width:12;stroke-linecap:round;stroke-linejoin:round;stroke-miterlimit:10;}
</style>
<defs>
	<filter id="Adobe_OpacityMaskFilter" filterUnits="userSpaceOnUse" x="0.4" y="0" width="81" height="100">
		<feFlood  style="flood-color:white;flood-opacity:1" result="back"/>
		<feBlend  in="SourceGraphic" in2="back" mode="normal"/>
	</filter>
</defs>
<mask maskUnits="userSpaceOnUse" x="0.4" y="0" width="81" height="100" id="SVGID_1_">
	<g class="st0">
		<rect x="57" y="40.5" class="st1" width="40" height="47"/>
	</g>
</mask>
<g class="st2">
	<path class="st3" d="M64.8,12c2.5,0,4.5,2,4.5,4.5v67c0,2.5-2,4.5-4.5,4.5h-48c-2.5,0-4.5-2-4.5-4.5v-67c0-2.5,2-4.5,4.5-4.5H64.8
		 M64.8,0h-48C7.8,0,0.4,7.4,0.4,16.5v67c0,9.1,7.4,16.5,16.5,16.5h48c9.1,0,16.5-7.4,16.5-16.5v-67C81.4,7.4,74,0,64.8,0L64.8,0z"
		/>
</g>
<g>
	<polygon class="st4" points="82,58 82,70 91,64 	"/>
	<path class="st5" d="M41,30v22c0,6.6,7.2,12,16.2,12h31"/>
</g>
</svg>
