<?xml version="1.0" encoding="utf-8"?>
<!-- Generator: Adobe Illustrator 26.0.0, SVG Export Plug-In . SVG Version: 6.00 Build 0)  -->
<svg version="1.1" xmlns="http://www.w3.org/2000/svg" xmlns:xlink="http://www.w3.org/1999/xlink" x="0px" y="0px"
	 viewBox="0 0 100 100" style="enable-background:new 0 0 100 100;" xml:space="preserve">
<style type="text/css">
	.st0{display:none;}
	.st1{display:inline;filter:url(#Adobe_OpacityMaskFilter);}
	.st2{display:inline;mask:url(#SVGID_1_);}
	.st3{fill:#BABECC;}
	.st4{display:inline;}
	.st5{fill:none;stroke:#BABECC;stroke-width:10;stroke-linecap:round;stroke-miterlimit:10;}
</style>
<g id="Layer_3" class="st0">
	<defs>
		<filter id="Adobe_OpacityMaskFilter" filterUnits="userSpaceOnUse" x="0" y="55" width="100" height="45">
			<feFlood  style="flood-color:white;flood-opacity:1" result="back"/>
			<feBlend  in="SourceGraphic" in2="back" mode="normal"/>
		</filter>
	</defs>
	<mask maskUnits="userSpaceOnUse" x="0" y="55" width="100" height="45" id="SVGID_1_" class="st4">
		<g style="filter:url(#Adobe_OpacityMaskFilter);">
			<g>
				<path d="M50,15c-15.1,0-27.5,12.4-27.5,27.5S34.9,70,50,70s27.5-12.4,27.5-27.5S65.1,15,50,15L50,15z"/>
			</g>
		</g>
	</mask>
	<g class="st2">
		<path class="st3" d="M70,65c11,0,20,9,20,20v5H10v-5c0-11,9-20,20-20H70 M70,55H30C13.4,55,0,68.4,0,85v15h100V85
			C100,68.4,86.6,55,70,55L70,55z"/>
	</g>
	<g class="st4">
		<path class="st3" d="M50,11c9.1,0,16.5,7.4,16.5,16.5S59.1,44,50,44s-16.5-7.4-16.5-16.5S40.9,11,50,11 M50,0
			C34.9,0,22.5,12.4,22.5,27.5S34.9,55,50,55s27.5-12.4,27.5-27.5S65.1,0,50,0L50,0z"/>
	</g>
</g>
<g id="Layer_2">
	<g>
		<path class="st3" d="M22.5,37.5C29.4,37.5,35,43.1,35,50s-5.6,12.5-12.5,12.5S10,56.9,10,50S15.6,37.5,22.5,37.5 M22.5,27.5
			C10.1,27.5,0,37.6,0,50s10.1,22.5,22.5,22.5S45,62.4,45,50S34.9,27.5,22.5,27.5L22.5,27.5z"/>
	</g>
	<g>
		<line class="st5" x1="40" y1="50" x2="95" y2="50"/>
	</g>
	<line class="st5" x1="95" y1="50" x2="95" y2="65"/>
	<line class="st5" x1="75" y1="50" x2="75" y2="65"/>
	<line class="st5" x1="95" y1="95" x2="50" y2="95"/>
	<path class="st5" d="M5,5"/>
	<path class="st5" d="M95,5"/>
	<path class="st5" d="M95,7"/>
	<path class="st5" d="M95,22"/>
	<path class="st5" d="M95,22.7V15c0-5.5-4.5-10-10-10H5"/>
</g>
</svg>
