<?xml version="1.0" encoding="utf-8"?>
<!-- Generator: Adobe Illustrator 26.0.0, SVG Export Plug-In . SVG Version: 6.00 Build 0)  -->
<svg version="1.1" id="Layer_1" xmlns="http://www.w3.org/2000/svg" xmlns:xlink="http://www.w3.org/1999/xlink" x="0px" y="0px"
	 viewBox="0 0 100 100" style="enable-background:new 0 0 100 100;" xml:space="preserve">
<style type="text/css">
	.st0{fill:none;stroke:#BABECC;stroke-width:5;stroke-miterlimit:10;}
	.st1{fill:#BABECC;stroke:#BABECC;stroke-width:5;stroke-miterlimit:10;}
	.st2{filter:url(#Adobe_OpacityMaskFilter);}
	.st3{mask:url(#SVGID_1_);fill:#BABECC;}
	.st4{fill:#BABECC;}
	.st5{filter:url(#Adobe_OpacityMaskFilter_00000051352133475884245720000007884690138128025985_);}
	.st6{fill:#BABECC;stroke:#000000;stroke-width:2;stroke-linecap:round;stroke-linejoin:round;stroke-miterlimit:10;}
	.st7{mask:url(#SVGID_00000006673589089448189280000014501669880510347648_);fill:#BABECC;}
	.st8{fill:none;stroke:#BABECC;stroke-width:10;stroke-linecap:round;stroke-miterlimit:10;}
</style>
<g>
	<ellipse transform="matrix(0.9848 -0.1736 0.1736 0.9848 -4.7089 14.9881)" class="st0" cx="83.3" cy="34.4" rx="12.7" ry="31.8"/>
	<path class="st1" d="M83.3,57.9c0,0,5-11.9,0-27.2S70.7,17.8,70.7,14.8s3.4-10.5,8.5-10.5s14.1,21.5,14.1,21.5s4.1,38.1-3.5,37.1
		S83.3,57.9,83.3,57.9z"/>
	<path class="st0" d="M72.9,11.4c-5.3,4-19.1,13.9-28.3,17.9c-7.6,3.3-15.1,4.3-20.8,6.7c-4.9,2-5.8,4.7-4.7,11
		c1.1,6.4,3.8,8.5,7.4,7.7c5.7-1.2,15.2-0.6,23.4-0.3c10,0.4,26.2,5.6,31.9,7.6"/>
	<defs>
		<filter id="Adobe_OpacityMaskFilter" filterUnits="userSpaceOnUse" x="18.2" y="35.9" width="15.6" height="19.8">
			<feFlood  style="flood-color:white;flood-opacity:1" result="back"/>
			<feBlend  in="SourceGraphic" in2="back" mode="normal"/>
		</filter>
	</defs>
	<mask maskUnits="userSpaceOnUse" x="18.2" y="35.9" width="15.6" height="19.8" id="SVGID_1_">
		<g class="st2">
			<ellipse transform="matrix(0.9848 -0.1736 0.1736 0.9848 -7.2598 6.3249)" cx="32.5" cy="44.7" rx="3.2" ry="8.9"/>
		</g>
	</mask>
	
		<rect x="19.6" y="36.9" transform="matrix(0.9848 -0.1736 0.1736 0.9848 -7.5592 5.2074)" class="st3" width="12.7" height="17.8"/>
	<circle class="st4" cx="73.7" cy="37.4" r="5"/>
	<defs>
		
			<filter id="Adobe_OpacityMaskFilter_00000128464399521975338250000010044959439681399701_" filterUnits="userSpaceOnUse" x="1" y="36.8" width="17.1" height="23.5">
			<feFlood  style="flood-color:white;flood-opacity:1" result="back"/>
			<feBlend  in="SourceGraphic" in2="back" mode="normal"/>
		</filter>
	</defs>
	
		<mask maskUnits="userSpaceOnUse" x="1" y="36.8" width="17.1" height="23.5" id="SVGID_00000077303417906525189070000016254461695235591849_">
		<g style="filter:url(#Adobe_OpacityMaskFilter_00000128464399521975338250000010044959439681399701_);">
			<g>
				<path class="st6" d="M10.2,40.8c0,0-0.7,3.9,0,7.7c0.7,3.9,2.6,7.3,2.6,7.3"/>
				<path class="st6" d="M6,44.2c0,0-0.5,2.6-0.1,5.2c0.5,2.6,1.8,4.8,1.8,4.8"/>
			</g>
		</g>
	</mask>
	<path style="mask:url(#SVGID_00000077303417906525189070000016254461695235591849_);fill:#BABECC;" d="M14.8,59.4l-4.7,0.8
		c-2.2,0.4-7.6-2.9-8.8-10.1s2.7-12.1,4.8-12.5l4.7-0.8c2.2-0.4,4.2,0.9,4.5,2.8c0,0-0.7,3.6,0,8c0.8,4.4,2.7,7.5,2.7,7.5
		C18.4,57.1,17,59,14.8,59.4z"/>
	<path class="st4" d="M33.8,86l-4.5,0.8c-2.9,0.5-5.7-1.2-6.1-3.9l-1.8-10.1L20.1,65c-0.5-2.7,1.5-5.3,4.4-5.8l4.5-0.8
		c2.9-0.5,5.7,1.2,6.1,3.9c0,0-2.3,3.2-1.2,9.4c1.1,6.2,4.3,8.5,4.3,8.5C38.7,82.9,36.7,85.5,33.8,86z"/>
</g>
<path class="st8" d="M45,5H12.2C8.2,5,5,8.2,5,12.2V25"/>
<path class="st8" d="M61.8,95h32.8"/>
</svg>
