<?xml version="1.0" encoding="utf-8"?>
<!-- Generator: Adobe Illustrator 26.0.0, SVG Export Plug-In . SVG Version: 6.00 Build 0)  -->
<svg version="1.1" id="Layer_3" xmlns="http://www.w3.org/2000/svg" xmlns:xlink="http://www.w3.org/1999/xlink" x="0px" y="0px"
	 viewBox="0 0 100 100" style="enable-background:new 0 0 100 100;" xml:space="preserve">
<style type="text/css">
	.st0{filter:url(#Adobe_OpacityMaskFilter);}
	.st1{mask:url(#SVGID_1_);}
	.st2{fill:#BABECC;}
</style>
<defs>
	<filter id="Adobe_OpacityMaskFilter" filterUnits="userSpaceOnUse" x="0" y="55" width="100" height="45">
		<feFlood  style="flood-color:white;flood-opacity:1" result="back"/>
		<feBlend  in="SourceGraphic" in2="back" mode="normal"/>
	</filter>
</defs>
<mask maskUnits="userSpaceOnUse" x="0" y="55" width="100" height="45" id="SVGID_1_">
	<g class="st0">
		<g>
			<path d="M50,15c-15.1,0-27.5,12.4-27.5,27.5S34.9,70,50,70s27.5-12.4,27.5-27.5S65.1,15,50,15L50,15z"/>
		</g>
	</g>
</mask>
<g class="st1">
	<path class="st2" d="M70,65c11,0,20,9,20,20v5H10v-5c0-11,9-20,20-20H70 M70,55H30C13.4,55,0,68.4,0,85v15h100V85
		C100,68.4,86.6,55,70,55L70,55z"/>
</g>
<g>
	<path class="st2" d="M50,11c9.1,0,16.5,7.4,16.5,16.5S59.1,44,50,44s-16.5-7.4-16.5-16.5S40.9,11,50,11 M50,0
		C34.9,0,22.5,12.4,22.5,27.5S34.9,55,50,55s27.5-12.4,27.5-27.5S65.1,0,50,0L50,0z"/>
</g>
</svg>
