<?xml version="1.0" encoding="utf-8"?>
<!-- Generator: Adobe Illustrator 26.0.0, SVG Export Plug-In . SVG Version: 6.00 Build 0)  -->
<svg version="1.1" id="Layer_1" xmlns="http://www.w3.org/2000/svg" xmlns:xlink="http://www.w3.org/1999/xlink" x="0px" y="0px"
	 viewBox="0 0 100 100" style="enable-background:new 0 0 100 100;" xml:space="preserve">
<style type="text/css">
	.st0{filter:url(#Adobe_OpacityMaskFilter);}
	.st1{mask:url(#SVGID_1_);}
	.st2{fill:#868EAC;}
	.st3{fill:#FFFFFF;}
</style>
<defs>
	<filter id="Adobe_OpacityMaskFilter" filterUnits="userSpaceOnUse" x="36.4" y="0" width="63.6" height="76.7">
		<feFlood  style="flood-color:white;flood-opacity:1" result="back"/>
		<feBlend  in="SourceGraphic" in2="back" mode="normal"/>
	</filter>
</defs>
<mask maskUnits="userSpaceOnUse" x="36.4" y="0" width="63.6" height="76.7" id="SVGID_1_">
	<g class="st0">
		<g>
			<path d="M65.8,74.1l-48.4,8.5c-2.7,0.5-5.3-1.3-5.8-4.1L0,12.7C-0.5,10,1.3,7.4,4.1,6.9l48.4-8.5c2.7-0.5,5.3,1.3,5.8,4.1
				l11.6,65.9C70.4,71.1,68.6,73.7,65.8,74.1z"/>
		</g>
	</g>
</mask>
<g class="st1">
	<path class="st2" d="M54.3,8.5L91.5,15l-9.4,53.2l-37.3-6.6L54.3,8.5 M51.8,0c-2.4,0-4.5,1.7-4.9,4.1L36.5,63.2
		c-0.5,2.7,1.3,5.3,4.1,5.8l43.2,7.6c0.3,0.1,0.6,0.1,0.9,0.1c2.4,0,4.5-1.7,4.9-4.1l10.4-59.1c0.5-2.7-1.3-5.3-4.1-5.8L52.7,0.1
		C52.4,0,52.1,0,51.8,0L51.8,0z"/>
</g>
<g>
	<path class="st2" d="M45.7,8.5l9.4,53.2l-37.3,6.6L8.5,15L45.7,8.5 M48.2,0c-0.3,0-0.6,0-0.9,0.1L4.1,7.7c-2.7,0.5-4.5,3.1-4.1,5.8
		l10.4,59.1c0.4,2.4,2.5,4.1,4.9,4.1c0.3,0,0.6,0,0.9-0.1L59.5,69c2.7-0.5,4.5-3.1,4.1-5.8L53.1,4.1C52.7,1.7,50.6,0,48.2,0L48.2,0z
		"/>
</g>
<g>
	<polygon class="st3" points="46,85.4 55.3,90 46,94.6 	"/>
	<path class="st2" d="M43.6,79.9c-0.8,0-1.6,0.7-1.6,1.6v17c0,0.9,0.8,1.6,1.6,1.6c0.2,0,0.5-0.1,0.7-0.2l17.1-8.5
		c1.2-0.6,1.2-2.3,0-2.9l-17.1-8.5C44.1,79.9,43.8,79.9,43.6,79.9L43.6,79.9z"/>
</g>
</svg>
