<?xml version="1.0" encoding="utf-8"?>
<!-- Generator: Adobe Illustrator 26.0.0, SVG Export Plug-In . SVG Version: 6.00 Build 0)  -->
<svg version="1.1" xmlns="http://www.w3.org/2000/svg" xmlns:xlink="http://www.w3.org/1999/xlink" x="0px" y="0px"
	 viewBox="0 0 100 100" style="enable-background:new 0 0 100 100;" xml:space="preserve">
<style type="text/css">
	.st0{display:none;}
	.st1{display:inline;}
	.st2{fill:#868EAC;}
	.st3{filter:url(#Adobe_OpacityMaskFilter);}
	.st4{mask:url(#SVGID_1_);}
	.st5{fill:none;stroke:#868EAC;stroke-width:5;stroke-miterlimit:10;}
	.st6{fill:none;stroke:#868EAC;stroke-width:8;stroke-miterlimit:10;}
</style>
<g id="Layer_2_00000167389424129819985120000016243536422006746034_" class="st0">
	<g class="st1">
		<path class="st2" d="M50,17.28L83.94,51H78v8v33H65.47v-6.99c0-4.97-4.07-9.01-9.07-9.01H43.61c-5,0-9.07,4.04-9.07,9.01V92H22V59
			v-8h-5.97l3.61-3.6l1.02-1.01v0.05L34.3,32.87L50,17.28 M50,6L28.67,27.2v-7.68c0-1.94-1.57-3.52-3.52-3.52H14v25.73L0.7,54.99
			C-0.83,56.51,0.32,59,2.54,59H14v41h28.53V85.01c0-0.56,0.48-1.01,1.07-1.01h12.79c0.59,0,1.07,0.45,1.07,1.01V100H86V59h11.46
			c2.22,0,3.37-2.49,1.84-4.01L50,6L50,6z"/>
	</g>
	<g class="st1">
		<circle class="st2" cx="90" cy="10" r="10"/>
	</g>
</g>
<g id="Layer_3">
	<g>
		<path class="st2" d="M79,8v34H15V8H79 M82,0H12C9.24,0,7,2.24,7,5v40c0,2.76,2.24,5,5,5h70c2.76,0,5-2.24,5-5V5
			C87,2.24,84.76,0,82,0L82,0z"/>
	</g>
	<defs>
		<filter id="Adobe_OpacityMaskFilter" filterUnits="userSpaceOnUse" x="20" y="28.44" width="80" height="50">
			<feFlood  style="flood-color:white;flood-opacity:1" result="back"/>
			<feBlend  in="SourceGraphic" in2="back" mode="normal"/>
		</filter>
	</defs>
	<mask maskUnits="userSpaceOnUse" x="20" y="28.44" width="80" height="50" id="SVGID_1_">
		<g class="st3">
			<g>
				<path d="M87,55H12c-2.76,0-5-2.24-5-5V5c0-2.76,2.24-5,5-5h75c2.76,0,5,2.24,5,5v45C92,52.76,89.76,55,87,55z"/>
			</g>
		</g>
	</mask>
	<g class="st4">
		<path class="st2" d="M92,36.44v34H28v-34H92 M95,28.44H25c-2.76,0-5,2.24-5,5v40c0,2.76,2.24,5,5,5h70c2.76,0,5-2.24,5-5v-40
			C100,30.68,97.76,28.44,95,28.44L95,28.44z"/>
	</g>
	<g>
		<line class="st5" x1="35" y1="60" x2="85" y2="60"/>
	</g>
	<g>
		<line class="st5" x1="22" y1="18" x2="72" y2="18"/>
	</g>
	<g>
		<line class="st5" x1="22" y1="32" x2="72" y2="32"/>
	</g>
	<path class="st6" d="M4,79v13.44c0,2.13,1.72,3.85,3.85,3.85h11.87"/>
</g>
</svg>
