<?xml version="1.0" encoding="utf-8"?>
<!-- Generator: Adobe Illustrator 26.0.0, SVG Export Plug-In . SVG Version: 6.00 Build 0)  -->
<svg version="1.1" id="Layer_3" xmlns="http://www.w3.org/2000/svg" xmlns:xlink="http://www.w3.org/1999/xlink" x="0px" y="0px"
	 viewBox="0 0 100 100" style="enable-background:new 0 0 100 100;" xml:space="preserve">
<style type="text/css">
	.st0{filter:url(#Adobe_OpacityMaskFilter);}
	.st1{mask:url(#SVGID_1_);}
	.st2{fill:#868EAC;}
	.st3{fill:none;stroke:#868EAC;stroke-width:8;stroke-miterlimit:10;}
	.st4{filter:url(#Adobe_OpacityMaskFilter_00000046325193986724280970000017212733075803040939_);}
	.st5{fill:none;stroke:#000000;stroke-width:15;stroke-miterlimit:10;}
	.st6{mask:url(#SVGID_00000102524763036321302290000013604766001054723979_);}
</style>
<g>
	<defs>
		<filter id="Adobe_OpacityMaskFilter" filterUnits="userSpaceOnUse" x="0" y="50" width="65" height="50">
			<feFlood  style="flood-color:white;flood-opacity:1" result="back"/>
			<feBlend  in="SourceGraphic" in2="back" mode="normal"/>
		</filter>
	</defs>
	<mask maskUnits="userSpaceOnUse" x="0" y="50" width="65" height="50" id="SVGID_1_">
		<g class="st0">
			<g>
				<circle cx="32.5" cy="37.5" r="22.5"/>
			</g>
		</g>
	</mask>
	<g class="st1">
		<path class="st2" d="M55,58c1.1,0,2,0.9,2,2v32H8V60c0-1.1,0.9-2,2-2H55 M55,50H10C4.5,50,0,54.5,0,60v40h65V60
			C65,54.5,60.5,50,55,50L55,50z"/>
	</g>
	<g>
		<path class="st2" d="M32.5,16c6.6,0,12,5.4,12,12s-5.4,12-12,12s-12-5.4-12-12S25.9,16,32.5,16 M32.5,8c-11,0-20,9-20,20
			s9,20,20,20s20-9,20-20S43.5,8,32.5,8L32.5,8z"/>
	</g>
</g>
<g>
	<path class="st3" d="M85,30"/>
</g>
<g>
	<path class="st3" d="M85,0"/>
</g>
<g>
	<g>
		<line class="st3" x1="75" y1="22.5" x2="100" y2="22.5"/>
	</g>
	<polygon class="st3" points="80,20 80,25 76,22.5 	"/>
</g>
<defs>
	
		<filter id="Adobe_OpacityMaskFilter_00000141438191467630795760000001285875796051407017_" filterUnits="userSpaceOnUse" x="58.9" y="0" width="37" height="45">
		<feFlood  style="flood-color:white;flood-opacity:1" result="back"/>
		<feBlend  in="SourceGraphic" in2="back" mode="normal"/>
	</filter>
</defs>
<mask maskUnits="userSpaceOnUse" x="58.9" y="0" width="37" height="45" id="SVGID_00000046321862540205231760000003350106576931608717_">
	<g style="filter:url(#Adobe_OpacityMaskFilter_00000141438191467630795760000001285875796051407017_);">
		<g>
			<line class="st5" x1="75" y1="22.5" x2="100" y2="22.5"/>
		</g>
	</g>
</mask>
<g style="mask:url(#SVGID_00000046321862540205231760000003350106576931608717_);">
	<path class="st2" d="M87.9,8v29h-21V8H87.9 M92.9,0h-31c-1.7,0-3,1.3-3,3v39c0,1.7,1.3,3,3,3h31c1.7,0,3-1.3,3-3V3
		C95.9,1.3,94.6,0,92.9,0L92.9,0z"/>
</g>
</svg>
