<?xml version="1.0" encoding="utf-8"?>
<!-- Generator: Adobe Illustrator 26.0.0, SVG Export Plug-In . SVG Version: 6.00 Build 0)  -->
<svg version="1.1" id="Layer_3" xmlns="http://www.w3.org/2000/svg" xmlns:xlink="http://www.w3.org/1999/xlink" x="0px" y="0px"
	 viewBox="0 0 100 100" style="enable-background:new 0 0 100 100;" xml:space="preserve">
<style type="text/css">
	.st0{filter:url(#Adobe_OpacityMaskFilter);}
	.st1{mask:url(#SVGID_1_);}
	.st2{fill:#868EAC;}
	.st3{fill:none;stroke:#868EAC;stroke-width:8;stroke-miterlimit:10;}
</style>
<g>
	<defs>
		<filter id="Adobe_OpacityMaskFilter" filterUnits="userSpaceOnUse" x="0" y="50" width="65" height="50">
			<feFlood  style="flood-color:white;flood-opacity:1" result="back"/>
			<feBlend  in="SourceGraphic" in2="back" mode="normal"/>
		</filter>
	</defs>
	<mask maskUnits="userSpaceOnUse" x="0" y="50" width="65" height="50" id="SVGID_1_">
		<g class="st0">
			<g>
				<circle cx="32.5" cy="37.5" r="22.5"/>
			</g>
		</g>
	</mask>
	<g class="st1">
		<path class="st2" d="M55,58c1.1,0,2,0.9,2,2v32H8V60c0-1.1,0.9-2,2-2H55 M55,50H10C4.5,50,0,54.5,0,60v40h65V60
			C65,54.5,60.5,50,55,50L55,50z"/>
	</g>
	<g>
		<path class="st2" d="M32.5,16c6.6,0,12,5.4,12,12s-5.4,12-12,12s-12-5.4-12-12S25.9,16,32.5,16 M32.5,8c-11,0-20,9-20,20
			s9,20,20,20s20-9,20-20S43.5,8,32.5,8L32.5,8z"/>
	</g>
</g>
<g>
	<line class="st3" x1="85" y1="0" x2="85" y2="30"/>
</g>
<g>
	<line class="st3" x1="70" y1="15" x2="100" y2="15"/>
</g>
</svg>
