<?xml version="1.0" encoding="utf-8"?>
<!-- Generator: Adobe Illustrator 26.0.0, SVG Export Plug-In . SVG Version: 6.00 Build 0)  -->
<svg version="1.1" xmlns="http://www.w3.org/2000/svg" xmlns:xlink="http://www.w3.org/1999/xlink" x="0px" y="0px"
	 viewBox="0 0 400 200" style="enable-background:new 0 0 400 200;" xml:space="preserve">
<style type="text/css">
	.st0{display:none;}
	.st1{fill-rule:evenodd;clip-rule:evenodd;fill:#9E6DAF;}
	.st2{fill:#9E6DAF;}
	.st3{fill:none;stroke:#BABECC;stroke-width:6;stroke-miterlimit:10;}
</style>
<g id="Layer_1" class="st0">
	
		<image style="display:inline;overflow:visible;" width="600" height="449" xlink:href="89EAD58E.jpg"  transform="matrix(0.4574 0 0 0.4574 60.7022 -0.6789)">
	</image>
</g>
<g id="Layer_2">
	<g id="layer1" transform="matrix(-0.7144727,-0.6996633,-0.6996633,0.7144727,341.25802,130.14441)">
		<path id="path1315" class="st1" d="M261,96.2c-10.1-9.7-23.1-14.7-36.1-15c7.6,1.9,14.9,5.7,21,11.5c18.4,17.6,19,46.9,1.4,65.3
			s-46.9,19-65.3,1.4c-6-5.8-10.2-12.8-12.4-20.3c0.9,12.9,6.4,25.5,16.5,35.2c21.5,20.7,55.8,19.9,76.5-1.6
			c20.4-21.3,20-55-0.9-75.7C261.5,96.7,261.3,96.4,261,96.2z"/>
		<path id="path3098" class="st2" d="M205.7,118.8l-16.6-8l-13.3,12.8l2.5-18.2l-16.2-8.7l18.1-3.3l3.3-18.1l8.7,16.2l18.2-2.5
			l-12.8,13.3L205.7,118.8z"/>
	</g>
	<g>
		<polygon class="st3" points="310,185 310,167.4 302.9,148.6 302.9,103.1 300.4,101.2 300.4,62.5 295.8,42.3 290.6,62.9 
			290.6,101.6 287.6,103.1 287.6,147.8 282,167.7 282.2,185 		"/>
		<polygon class="st3" points="90,184.6 90,167.1 97.1,148.3 97.1,102.7 99.6,100.8 99.6,62.2 104.2,42.3 109.4,62.6 109.4,101.2 
			112.4,102.7 112.4,147.4 118,167.3 117.8,184.6 		"/>
		<line class="st3" x1="117.8" y1="184.6" x2="282.2" y2="185"/>
		<path class="st3" d="M119.5,160v-37.9h29.1v-11.8V101l5.3-1.3v-6.5c0,0,2-3.3,6.9-3.3s6.5,2.7,6.5,2.7v14.9l6.5,3.8v73.4"/>
		<path class="st3" d="M280.6,160v-37.9h-29.1v-11.8V101l-5.3-1.3v-6.5c0,0-2-3.3-6.9-3.3c-4.9,0-6.5,2.7-6.5,2.7v14.9l-6.5,3.8
			v73.4"/>
		<path class="st3" d="M122.8,122.1c0,0,1.8-7.2,8.9-12.2c7.1-4.9,16.9-4.9,16.9-4.9"/>
		<path class="st3" d="M277.2,122c0,0-1.8-7.2-8.9-12.2c-7.1-4.9-16.9-4.9-16.9-4.9"/>
		<polyline class="st3" points="148.6,122.1 148.6,159.9 173.7,159.9 		"/>
		<line class="st3" x1="148.6" y1="159.9" x2="116.9" y2="159.9"/>
		<path class="st3" d="M148.6,137.2c0,0-8.8,0.2-15.8,6.7c-7.1,6.5-7.1,16-7.1,16"/>
		<path class="st3" d="M251.2,137.2c0,0,8.8,0.2,15.8,6.7s7.1,16,7.1,16"/>
		<line class="st3" x1="226.3" y1="159.9" x2="282.2" y2="159.9"/>
		<line class="st3" x1="251.5" y1="122.1" x2="251.5" y2="159.9"/>
		<path class="st3" d="M158.6,90.1c0,0,7.8-24.5,41.4-24.5s41.5,24.5,41.5,24.5"/>
		<path class="st3" d="M167.3,94.5c0,0,8.6-3.1,34.6-3.1s30.9,3.1,30.9,3.1"/>
		<path class="st3" d="M173.7,111.2c0,0,4.9-1.3,26.3-1.3s26.3,1.3,26.3,1.3"/>
		<path class="st3" d="M173.7,153c0,0,9.8-4.4,26.3-4.4s26.3,4.4,26.3,4.4"/>
		<path class="st3" d="M180,184.6c0,0-1.5-21.8,20-21.8s20,21.8,20,21.8"/>
		<polyline class="st3" points="197.3,65.6 200.2,58.1 203.3,65.6 		"/>
		<path class="st3" d="M148.6,131.2"/>
		<path class="st3" d="M119.5,131.2"/>
		<path class="st3" d="M280.6,131.2"/>
		<path class="st3" d="M251.4,131.2"/>
		<path class="st3" d="M173.7,131.2c0,0,4.4-9.2,26.5-9.2s26.1,9.2,26.1,9.2"/>
	</g>
	<path class="st3" d="M98.2,148.1"/>
</g>
<g id="Layer_3">
</g>
</svg>
