<?xml version="1.0" encoding="utf-8"?>
<!-- Generator: Adobe Illustrator 26.0.0, SVG Export Plug-In . SVG Version: 6.00 Build 0)  -->
<svg version="1.1" xmlns="http://www.w3.org/2000/svg" xmlns:xlink="http://www.w3.org/1999/xlink" x="0px" y="0px"
	 viewBox="0 0 400 200" style="enable-background:new 0 0 400 200;" xml:space="preserve">
<style type="text/css">
	.st0{display:none;}
	.st1{fill-rule:evenodd;clip-rule:evenodd;fill:#9E6DAF;}
	.st2{fill:#9E6DAF;}
	.st3{fill:none;stroke:#BABECC;stroke-width:6;stroke-miterlimit:10;}
</style>
<g id="Layer_1" class="st0">
	
		<image style="display:inline;overflow:visible;" width="600" height="449" xlink:href="89EAD58D.jpg"  transform="matrix(0.4574 0 0 0.4574 60.7022 -0.6789)">
	</image>
</g>
<g id="Layer_2">
	<g id="layer1" transform="matrix(-0.7144727,-0.6996633,-0.6996633,0.7144727,341.25802,130.14441)">
		<path id="path1315" class="st1" d="M277.3,98.2c-10.1-9.7-23.1-14.7-36.1-15c7.6,1.9,14.9,5.7,21,11.5c18.4,17.6,19,46.9,1.4,65.3
			s-46.9,19-65.3,1.4c-6-5.8-10.2-12.8-12.4-20.3c0.9,12.9,6.4,25.5,16.5,35.2c21.5,20.7,55.8,19.9,76.5-1.6
			c20.4-21.3,20-55-0.9-75.7C277.8,98.6,277.5,98.4,277.3,98.2z"/>
		<path id="path3098" class="st2" d="M222,120.8l-16.6-8l-13.3,12.8l2.5-18.2l-16.2-8.7l18.1-3.3l3.3-18.1l8.7,16.2l18.2-2.5
			L214,104.2L222,120.8z"/>
	</g>
	<g>
		<polygon class="st3" points="330,186 330,165.4 321.7,143.3 321.7,89.9 318.7,87.7 318.7,42.3 313.3,18.6 307.2,42.8 307.2,88.2 
			303.8,89.9 303.8,142.4 297.2,165.7 297.4,186 		"/>
		<polygon class="st3" points="72,185.6 72,165 80.3,142.9 80.3,89.5 83.3,87.3 83.3,41.9 88.7,18.6 94.8,42.4 94.8,87.8 98.2,89.5 
			98.2,141.9 104.8,165.2 104.6,185.6 		"/>
		<line class="st3" x1="104.6" y1="185.6" x2="297.4" y2="186"/>
		<path class="st3" d="M106.5,156.7v-44.4h34.2V98.4V87.4l6.3-1.6v-7.6c0,0,2.3-3.9,8.1-3.9s7.6,3.1,7.6,3.1V95l7.6,4.4v86.1"/>
		<path class="st3" d="M295.5,156.7v-44.4h-34.2V98.4V87.4l-6.3-1.6v-7.6c0,0-2.3-3.9-8.1-3.9s-7.6,3.1-7.6,3.1V95l-7.6,4.4v86.1"/>
		<path class="st3" d="M110.4,112.2c0,0,2.1-8.5,10.4-14.3s19.8-5.8,19.8-5.8"/>
		<path class="st3" d="M291.5,112.1c0,0-2.1-8.5-10.4-14.3S261.2,92,261.2,92"/>
		<polyline class="st3" points="140.7,112.2 140.7,156.6 170.2,156.6 		"/>
		<line class="st3" x1="140.7" y1="156.6" x2="103.5" y2="156.6"/>
		<path class="st3" d="M140.7,130c0,0-10.3,0.2-18.6,7.8s-8.3,18.8-8.3,18.8"/>
		<path class="st3" d="M261,130c0,0,10.3,0.2,18.6,7.8c8.3,7.6,8.3,18.8,8.3,18.8"/>
		<line class="st3" x1="231.9" y1="156.6" x2="297.4" y2="156.6"/>
		<line class="st3" x1="261.4" y1="112.2" x2="261.4" y2="156.6"/>
		<path class="st3" d="M152.5,74.7c0,0,9.2-28.7,48.5-28.7s48.6,28.7,48.6,28.7"/>
		<path class="st3" d="M162.6,79.9c0,0,10-3.7,40.6-3.7s36.2,3.7,36.2,3.7"/>
		<path class="st3" d="M170.2,99.5c0,0,5.8-1.5,30.8-1.5s30.9,1.5,30.9,1.5"/>
		<path class="st3" d="M170.2,148.5c0,0,11.5-5.2,30.8-5.2s30.9,5.2,30.9,5.2"/>
		<path class="st3" d="M177.5,185.6c0,0-1.8-25.6,23.5-25.6s23.5,25.6,23.5,25.6"/>
		<polyline class="st3" points="197.8,46 201.2,37.2 204.9,46 		"/>
		<path class="st3" d="M140.7,122.9"/>
		<path class="st3" d="M106.5,122.9"/>
		<path class="st3" d="M295.5,122.9"/>
		<path class="st3" d="M261.2,122.9"/>
		<path class="st3" d="M170.2,122.9c0,0,5.2-10.8,31.1-10.8s30.6,10.8,30.6,10.8"/>
	</g>
	<path class="st3" d="M98.2,148.1"/>
</g>
<g id="Layer_3">
</g>
</svg>
